<?xml version="1.0" encoding="utf-8"?>
<!-- Generator: Adobe Illustrator 25.0.0, SVG Export Plug-In . SVG Version: 6.00 Build 0)  -->
<svg version="1.1" id="katman_1" xmlns="http://www.w3.org/2000/svg" xmlns:xlink="http://www.w3.org/1999/xlink" x="0px" y="0px"
	 viewBox="0 0 560 400" style="enable-background:new 0 0 560 400;" xml:space="preserve">
<style type="text/css">
	.st0{fill-rule:evenodd;clip-rule:evenodd;}
</style>
<path class="st0" d="M152.3,150c5.5-6.8,8.1-15.4,7.3-24c-8.4,0.8-16.3,4.9-21.9,11.3c-5.6,6.3-8.4,14.4-7.9,22.8
	C138.4,160.5,146.8,156.7,152.3,150 M159.4,161.5c-12.2-0.8-22.6,6.9-28.1,6.9s-14.7-6.6-24.4-6.4c-12.8,0.3-24.5,7.5-30.6,18.7
	c-13.2,22.6-3.5,56.4,9.4,74.5c6.2,9.4,13.6,18.8,23.5,18.8c9.9,0,12.9-6,24.2-6c11.3,0,14.5,6,24.4,5.8c9.9-0.2,16.6-9.4,22.7-18.2
	c4.4-6.4,7.8-13.5,10.1-20.9c-12-5.3-19.7-17.2-19.6-30.3c0.2-11.5,6.3-22.1,16-28.1c-6.3-8.9-16.3-14.4-27.1-14.7"/>
<path class="st0" d="M255.5,149.5v23.4h18.7v16.1h-18.7V244c0,8.5,3.7,12.5,12.1,12.5c2.3,0,4.5-0.2,6.8-0.5v16
	c-3.7,0.7-7.5,1-11.3,0.9c-20.2,0-28.1-7.6-28.1-26.9v-56.8h-14.2v-16.4h14.4v-23.4L255.5,149.5z M342.9,272.7h-21.8l-36-99.7h21.8
	l25,79.6l25.3-79.6h21.4L342.9,272.7z M490.1,212.9h-39.7v-39.8h-18.9v39.8h-39.5v18.7h39.5v40h18.9v-40h39.7V212.9z"/>
</svg>
