<?xml version="1.0" encoding="utf-8"?>
<!-- Generator: Adobe Illustrator 25.0.1, SVG Export Plug-In . SVG Version: 6.00 Build 0)  -->
<svg version="1.0" id="katman_1" xmlns="http://www.w3.org/2000/svg" xmlns:xlink="http://www.w3.org/1999/xlink" x="0px" y="0px"
	 viewBox="0 0 600 400" style="enable-background:new 0 0 560 400;" xml:space="preserve">
<style type="text/css">
	.st0{fill:#232F3E;}
	.st1{fill:#00A8E1;}
</style>
<g>
	<g>
		<path class="st0" d="M315.5,184.2c0.3-1,0.6-2,0.9-3.1c2.4-8.1,4.8-16.2,7.2-24.4l0.3-0.9c0.3-0.9,1.2-1.5,2.1-1.5h8
			c2,0,2.4,0.6,1.7,2.5l-3.1,8.3c-3.5,9.1-7,18.3-10.5,27.4c-0.1,0.3-0.3,0.6-0.4,0.9c-0.4,1.1-1.5,1.8-2.6,1.7
			c-2.3-0.1-4.6-0.1-6.9,0c-1.6,0.1-2.6-0.7-3.1-2.2c-1.3-3.5-2.7-7-4-10.4c-3.1-8.2-6.4-16.5-9.5-24.8c-0.3-0.6-0.5-1.4-0.7-2
			c-0.2-1,0.2-1.6,1.3-1.6c3-0.1,6,0,8.9,0c1.3,0,1.8,0.8,2.2,1.9c0.6,2,1.2,4,1.8,6c2.2,7.3,4.3,14.6,6.4,21.9
			C315.3,184.2,315.3,184.2,315.5,184.2L315.5,184.2z"/>
		<path class="st0" d="M352.6,174.7v18.9c-0.1,1-0.6,1.5-1.6,1.6c-2.8,0.1-5.6,0.1-8.5,0c-1,0-1.5-0.5-1.6-1.5
			c-0.1-0.3-0.1-0.7-0.1-1v-36.3c0.1-1.6,0.5-2.1,2.1-2.1h7.6c1.6,0,2.1,0.5,2.1,2.1L352.6,174.7z"/>
		<path class="st0" d="M346.8,135.4c1-0.1,2.1,0.1,3.1,0.5c2,0.8,3.5,2.7,3.6,4.9c0.4,4.8-2.8,7.2-7,7.1c-0.6,0-1.2-0.1-1.7-0.2
			c-3.3-0.8-4.9-3.3-4.6-6.9c0.3-2.9,2.5-5,5.6-5.3C346,135.4,346.4,135.4,346.8,135.4L346.8,135.4z"/>
		<path class="st0" d="M489.9,178.5C489.9,178.4,489.9,178.4,489.9,178.5z"/>
		<path class="st0" d="M489.9,171.5v0.2c-0.2-0.2-0.3-0.5-0.2-0.8v-0.4c0,0,0-0.1,0.1-0.1h-0.1v-0.5h0.1c0-0.1-0.1-0.1-0.1-0.1
			c-0.1-1-0.3-2-0.6-2.9c-1.9-6.9-6.3-11.5-13.4-13.3c-3.3-0.8-6.7-0.9-10-0.4c-7.1,1.1-12.2,4.8-14.6,11.5
			c-2.4,6.4-2.4,13.4,0.1,19.8c2.1,5.8,6.3,9.5,12.3,11c3.2,0.8,6.6,1,9.9,0.5c11-1.3,15.6-9.7,16.3-16.9h-0.1v-0.7
			c-0.1-0.3-0.1-0.6,0.2-0.8v0.1c0-0.1,0.1-0.2,0.1-0.2v-6C490,171.5,489.9,171.5,489.9,171.5z M477.4,181.4c-0.3,1.1-0.8,2.1-1.5,3
			c-1.2,1.6-3,2.7-5,2.8c-1,0.1-2,0.1-3-0.1c-2.2-0.4-4-1.9-4.9-3.9c-0.8-1.6-1.3-3.4-1.4-5.2c-0.3-3.1-0.3-6.2,0.4-9.2
			c0.3-1.2,0.8-2.4,1.4-3.5c1.2-1.9,3.1-3.1,5.4-3.3c1-0.1,2-0.1,3,0.1c2.1,0.4,3.8,1.8,4.8,3.7c0.9,1.8,1.4,3.9,1.5,5.9
			c0.1,0.9,0.1,1.9,0.1,2.8C478.2,177,478,179.3,477.4,181.4L477.4,181.4z"/>
		<path class="st0" d="M398,135.8h-7.3c-2,0-2.4,0.4-2.4,2.4v17c0,0.4,0.2,0.7-0.1,1.1c-0.5-0.1-0.7-0.4-1.1-0.6
			c-5.5-3.2-11.2-3.8-17-1.1c-4,1.9-6.6,5.3-8.2,9.3c-1.6,3.9-1.9,8-1.8,12.1c0,3.9,0.9,7.7,2.6,11.2c2,3.8,4.9,6.8,9.1,8
			c5.7,1.8,11.1,0.9,16-2.7c0.4-0.2,0.6-0.6,1-0.7c0.3,0.6,0.5,1.2,0.6,1.8c0.2,0.8,0.9,1.4,1.8,1.4h1.3c1.9,0,3.7,0.1,5.6,0
			c1.5,0,1.9-0.5,1.9-2v-55.3C399.9,136.1,399.5,135.8,398,135.8L398,135.8z M388.3,174.4v9.6c0.1,0.6-0.3,1.2-0.8,1.5
			c-2.5,1.4-5.4,2-8.2,1.6c-2.4-0.3-4.5-1.7-5.6-3.9c-0.8-1.7-1.3-3.5-1.5-5.3c-0.4-3.3-0.2-6.7,0.6-9.9c0.3-0.9,0.6-1.7,1-2.6
			c1.1-2,3.2-3.4,5.5-3.5c2.8-0.3,5.6,0.3,8.1,1.4c0.6,0.2,1,0.8,0.9,1.5C388.3,168.1,388.3,171.2,388.3,174.4L388.3,174.4z"/>
		<path class="st0" d="M429.6,178.5c3-0.2,6.1-0.8,8.8-2.3c2.8-1.4,4.7-3.9,5.3-7c0.4-1.9,0.4-3.9-0.1-5.8c-1.1-4.7-4.1-7.7-8.6-9.2
			c-2.5-0.8-5.2-1.1-7.8-1c-8.8,0.2-15.5,4.7-18.3,13.5c-1.8,5.8-1.6,11.8,0.2,17.6c1.8,6,6,9.6,12,11.2c2.6,0.6,5.2,0.9,7.9,0.8
			c3.8-0.1,7.7-0.8,11.3-2.2c1.5-0.6,1.9-1.1,1.9-2.7v-3.8c-0.1-1.5-0.7-2-2.2-1.7c-1.2,0.3-2.3,0.6-3.4,0.8
			c-3.5,0.8-7.2,1-10.8,0.4c-3.6-0.7-6-2.7-6.9-6.3c-0.3-1-0.5-2.1-0.6-3.2c0.3,0,0.5,0,0.7,0.1
			C422.6,178.5,426.1,178.8,429.6,178.5L429.6,178.5z M418.7,170.2c0.4-2,0.8-4,2.1-5.7c1.9-2.6,4.6-3.3,7.7-3
			c0.3,0,0.5,0.1,0.7,0.1c3.7,0.6,4.6,3.5,3.9,6.4c-0.5,2.1-2.3,2.9-4.2,3.3c-1,0.2-2.2,0.3-3.3,0.3c-2.2-0.1-4.3-0.2-6.4-0.5
			C418.8,170.8,418.6,170.6,418.7,170.2z"/>
	</g>
	<g>
		<path class="st1" d="M278,264.4c-2.9-0.2-5.7-0.3-8.6-0.5c-7.7-0.6-15.3-1.7-22.7-3.5c-25.8-6-48.4-18-68.1-35.5
			c-1.8-1.6-3.6-3.3-5.4-5c-0.4-0.4-0.8-0.9-1-1.4c-0.3-0.7-0.2-1.5,0.4-2.1s1.4-0.8,2.1-0.5c0.5,0.2,0.9,0.4,1.4,0.7
			c18.8,11.7,39.4,20.2,61,25.2c7.2,1.7,14.5,3,21.9,3.9c10.5,1.3,21.2,1.8,31.8,1.4c5.7-0.2,11.4-0.7,17.1-1.4
			c13.2-1.7,26.3-4.7,38.9-8.9c6.7-2.2,13.2-4.7,19.5-7.7c0.9-0.5,2.1-0.7,3.1-0.4c1.7,0.4,2.8,2.2,2.4,3.9
			c-0.1,0.2-0.2,0.5-0.3,0.7c-0.4,0.8-1,1.5-1.7,2c-6,4.7-12.5,8.9-19.4,12.3c-13,6.6-26.8,11.2-41.1,13.9
			c-8.2,1.5-16.5,2.4-24.8,2.7l0,0v0.2h-6.3L278,264.4L278,264.4z M374.6,213.2c3.5,0.1,6.9,0.3,10.2,1.2c0.9,0.3,1.8,0.6,2.7,1
			c1.2,0.5,2,1.6,2.2,2.9c0.2,1.5,0.3,3,0.2,4.5c-0.7,9-3.5,17.6-8.1,25.3c-1.7,2.8-3.7,5.3-6.1,7.5c-0.5,0.5-1,0.8-1.7,1
			c-1,0.3-1.6-0.3-1.7-1.3c0.1-0.5,0.2-1.1,0.4-1.6c1.8-4.9,3.6-9.8,5-14.9c0.8-2.8,1.4-5.6,1.8-8.5c0.1-1,0.2-2.1,0.1-3.1
			c-0.1-1.8-1.2-3.3-2.9-3.8c-1.6-0.5-3.3-0.8-5-0.9c-4.8-0.2-9.7,0-14.4,0.6l-6.4,0.8c-0.7,0.1-1.3,0-1.7-0.6
			c-0.4-0.6-0.2-1.3,0.2-1.9c0.4-0.6,0.9-1.1,1.6-1.5c3.9-2.8,8.2-4.5,12.9-5.6C367.3,213.7,370.9,213.3,374.6,213.2L374.6,213.2z"
			/>
		<path class="st1" d="M110.3,170.3c-0.2-2.7-0.9-5.4-2-7.9c-2.2-4.5-5.5-7.8-10.5-9c-5.8-1.3-11,0-15.7,3.5
			c-0.3,0.3-0.7,0.6-1.1,0.8c-0.1-0.1-0.2-0.1-0.2-0.2c-0.2-0.5-0.3-1-0.4-1.6c-0.4-1.3-0.9-1.8-2.4-1.8c-1.6,0-3.2,0.1-4.8,0
			c-1.2-0.1-2.3,0.1-3.1,1c0,18.4,0,36.8,0.1,55.1c0.7,1.1,1.7,1.3,2.9,1.3c1.9-0.1,3.8,0,5.7,0c3.3,0,3.3,0,3.3-3.3v-15
			c0-0.4-0.2-0.8,0.2-1.1c2.6,2,5.8,3.3,9.1,3.6c4.6,0.5,8.8-0.7,12.3-3.8c2.6-2.4,4.5-5.4,5.5-8.8
			C110.5,179.1,110.6,174.7,110.3,170.3L110.3,170.3z M252.6,178c3.9,0.7,8,0.8,11.9,0.2c2.3-0.3,4.5-1,6.6-2.1
			c2.4-1.4,4.1-3.3,4.8-5.9c1.8-6.6-1-13.3-7.9-15.7c-3.4-1.1-6.9-1.5-10.4-1c-8.3,0.9-13.7,5.5-16.2,13.4
			c-1.7,5.4-1.5,10.9-0.1,16.4c1.8,7,6.5,11.1,13.4,12.6c4,0.9,8,0.7,12,0.1c2.1-0.4,4.2-0.9,6.2-1.7c1.2-0.5,1.8-1.2,1.8-2.6
			c-0.1-1.3,0-2.6,0-3.9c0-1.6-0.6-2-2.2-1.7c-1.5,0.4-3,0.7-4.5,1c-3.3,0.7-6.6,0.7-9.9,0.1c-4.5-0.9-7.3-4.7-7.1-9.4
			C251.6,177.9,252.2,177.9,252.6,178L252.6,178z M180.4,195.2h-7c-1.8,0-2.3-0.5-2.3-2.3v-36.4c0-0.4,0.1-0.8,0.2-1.3
			c0.2-0.6,0.8-1,1.5-1h6.6c0.9,0,1.5,0.6,1.8,1.5c0.3,0.7,0.4,1.4,0.7,2.2c0.5,0,0.8-0.4,1.2-0.6c2.9-1.8,5.9-3.3,9.3-3.9
			c2.6-0.5,5.2-0.5,7.9,0c2.5,0.5,4.7,2,6.1,4.1c0.1,0.2,0.2,0.3,0.3,0.4c-0.1,0.1,0,0.1,0.1,0.2c1.3-0.8,2.7-1.6,4.1-2.4
			c3.7-1.9,7.8-2.8,11.9-2.6c3,0.2,5.7,1,7.8,3.2c2,2,2.7,4.6,2.9,7.3c0.1,0.6,0.1,1.2,0.1,1.8v27.2c0,2.4-0.3,2.7-2.7,2.7h-6.4
			c-0.4,0-0.8,0-1.3-0.1c-0.6-0.1-1.2-0.6-1.3-1.2c-0.1-0.6-0.1-1.2-0.1-1.7v-24.3c0.1-1-0.1-1.9-0.3-2.9c-0.4-1.6-1.9-2.8-3.6-2.9
			c-3.1-0.2-6.2,0.4-9,1.7c-0.4,0.1-0.7,0.5-0.6,0.9v27.6c0,0.5,0,1-0.1,1.5c0,0.7-0.6,1.3-1.3,1.3c-0.8,0.1-1.6,0.1-2.4,0.1h-5.6
			c-1.9,0-2.4-0.5-2.4-2.4V168c0-0.9-0.1-1.8-0.3-2.7c-0.4-1.8-1.9-3-3.7-3.1c-3.1-0.2-6.4,0.4-9.2,1.8c-0.4,0.1-0.7,0.6-0.6,1v28
			C182.8,194.8,182.4,195.2,180.4,195.2L180.4,195.2z M127.3,195.2h-6.8c-0.4,0-0.8,0-1.2-0.1c-0.7-0.1-1.2-0.6-1.3-1.3
			c-0.1-0.4-0.1-0.8-0.1-1.3v-35.7c0-2.4,0.3-2.7,2.7-2.7h5c1.4,0,2,0.5,2.4,1.8c0.4,1.3,0.7,2.6,1,4c0.4-0.1,0.7-0.3,0.9-0.6
			c0.9-0.9,1.9-1.8,3-2.7c2.7-2.1,6.1-3.1,9.6-2.9c1.4,0.1,1.8,0.5,1.9,1.8c0.1,1.8,0.1,3.6,0.1,5.4c0.1,0.7,0,1.4-0.1,2.2
			c-0.2,0.9-0.6,1.3-1.5,1.4c-0.7,0.1-1.4,0-2.2-0.1c-3.5-0.3-6.9,0.4-10.2,1.5c-0.7,0.3-0.7,0.8-0.7,1.4v25.2c0,0.5,0,0.9-0.1,1.4
			c-0.1,0.7-0.6,1.2-1.3,1.2C128.1,195.2,127.7,195.2,127.3,195.2z M159,195.1h-7.3c-0.3,0-0.5,0-0.7-0.1c-0.7-0.1-1.4-0.6-1.4-1.4
			c-0.1-0.4-0.1-0.8-0.1-1.3c0.1-5.8,0.1-11.8,0.1-17.8V156c0.1-1.3,0.5-1.7,1.8-1.8c2.7-0.1,5.5-0.1,8.2,0c1.2,0,1.6,0.4,1.7,1.6
			c0.1,0.5,0.1,0.9,0.1,1.4v35c0,0.6-0.1,1.2-0.1,1.7c-0.1,0.7-0.6,1.2-1.3,1.2C159.6,195.1,159.3,195.1,159,195.1L159,195.1z
			 M97.7,181.2c-0.4,1.6-1.2,3.1-2.4,4.2c-1.4,1.2-3,1.8-4.8,1.8c-2.7,0.2-5.3-0.4-7.7-1.7c-0.6-0.3-0.9-0.8-0.9-1.5v-9.5
			c0-3.1,0.1-6.3,0-9.4c-0.1-0.7,0.4-1.4,1.1-1.6c2.9-1.4,5.9-2,9-1.4c2.2,0.3,4.1,1.7,5,3.8c0.8,1.7,1.3,3.5,1.4,5.4
			C98.7,174.6,98.7,178,97.7,181.2L97.7,181.2z M251.3,170c0.2-1.3,0.5-2.5,1-3.6c1.6-3.8,4.9-5.1,8.2-4.9c0.9,0.1,1.9,0.3,2.8,0.6
			c1.4,0.6,2.3,1.8,2.4,3.3c0.2,0.9,0.1,1.8-0.2,2.7c-0.6,1.9-2.2,2.7-4,3c-1.1,0.3-2.3,0.4-3.4,0.3c-2,0-4.1-0.2-6.2-0.5
			C251.2,170.8,251.2,170.8,251.3,170L251.3,170z M155.6,135.4c0.8-0.1,1.7,0.1,2.5,0.4c2.8,0.9,4.3,3.4,4,6.6
			c-0.2,2.7-2.3,4.9-5,5.4c-1.2,0.2-2.4,0.2-3.5,0c-3-0.6-5.2-2.8-5-6.6C149,137.5,151.4,135.4,155.6,135.4L155.6,135.4z"/>
	</g>
</g>
</svg>
