<?xml version="1.0" encoding="utf-8"?>
<!-- Generator: Adobe Illustrator 27.8.1, SVG Export Plug-In . SVG Version: 6.00 Build 0)  -->
<svg version="1.1" id="Groupe_1_00000086678831617719511780000012381641848020841858_"
	 xmlns="http://www.w3.org/2000/svg" xmlns:xlink="http://www.w3.org/1999/xlink" x="0px" y="0px" viewBox="0 0 3200 769"
	 style="enable-background:new 0 0 3200 769;" xml:space="preserve">
<style type="text/css">
	.st0{fill:#1ED760;}
</style>
<g id="S">
	<g>
		<path class="st0" d="M1240.48,395.06c-21.51-21.94-52.67-38.19-93.49-48.72l-38.85-10.53c-25.46-6.58-44.44-12.61-56.95-18.11
			c-12.51-5.48-20.85-11.19-25.02-17.12c-4.18-5.93-6.25-13.27-6.25-22.06c0-14.48,7.24-26.77,21.73-36.87
			c14.48-10.09,35.55-15.14,63.21-15.14c54.79,0,123.85,32.17,143.53,58.87V182.4c-15.37-11.85-36.21-22.06-62.55-30.62
			c-26.34-8.56-54.65-12.84-84.93-12.84c-37.76,0-70.23,6.48-97.44,19.42c-27.22,12.95-47.96,30.29-62.22,52.01
			c-14.27,21.73-21.4,45.1-21.4,70.12c0,37.31,10.86,66.5,32.59,87.57c21.73,21.07,53.43,37.1,95.14,48.06l38.85,10.53
			c24.58,6.58,43.01,12.95,55.31,19.09c12.28,6.15,20.41,12.51,24.36,19.09c3.95,6.58,5.93,14.71,5.93,24.36
			c0,16.24-6.7,29.08-20.08,38.52c-13.39,9.44-32.82,14.16-58.27,14.16c-57.44,0-144.47-38.11-173.82-85.84v111.51
			c15.36,15.8,39.5,29.96,72.42,42.47c32.92,12.51,68.25,18.76,106,18.76c35.55,0,66.5-6.37,92.83-19.09
			c26.34-12.73,46.52-30.17,60.57-52.34c14.04-22.16,21.07-46.85,21.07-74.07C1272.74,446.42,1261.98,417.02,1240.48,395.06z"/>
	</g>
</g>
<g id="p">
	<g>
		<path class="st0" d="M1656.76,358.34c-13.06-27.08-31.17-48.41-54.31-63.98c-23.15-15.57-49.16-23.36-78.03-23.36
			c-54.09,0-95.8,26.18-125.13,78.53v-73.38h-96.94v452.48h96.94V550.61c29.33,51.45,71.26,77.18,125.81,77.18
			c28.88,0,54.88-7.68,78.03-23.02c23.14-15.34,41.13-36.56,53.97-63.64c12.83-27.08,19.25-57.55,19.25-91.4
			C1676.35,415.88,1669.82,385.42,1656.76,358.34z M1556.72,519.47c-14.67,17.6-33.92,26.4-57.75,26.4
			c-23.38,0-44.12-9.14-62.22-27.42c-18.11-18.28-31.28-41.4-39.53-69.39c8.25-27.98,21.42-51.11,39.53-69.39
			c18.1-18.28,38.84-27.42,62.22-27.42c23.83,0,43.08,9.03,57.75,27.08c14.66,18.06,22,41.53,22,70.41
			C1578.72,478.62,1571.39,501.86,1556.72,519.47z"/>
	</g>
</g>
<g id="o">
	<g>
		<path class="st0" d="M2055.46,357.76c-16.05-27.52-38.39-49.19-67.03-64.99c-28.65-15.79-61.31-23.7-97.97-23.7
			c-36.67,0-69.33,7.9-97.97,23.7c-28.65,15.8-50.88,37.47-66.69,64.99c-15.81,27.53-23.72,58.22-23.72,92.07
			c0,33.41,7.91,63.87,23.72,91.4c15.81,27.53,38.04,49.2,66.69,64.99c28.64,15.79,61.3,23.7,97.97,23.7
			c36.66,0,69.32-7.9,97.97-23.7c28.64-15.79,50.98-37.46,67.03-64.99c16.04-27.52,24.06-57.99,24.06-91.4
			C2079.52,415.98,2071.5,385.3,2055.46,357.76z M1957.15,520.24c-16.96,18.51-39.19,27.76-66.69,27.76
			c-27.05,0-49.05-9.14-66-27.42c-16.96-18.28-25.44-41.86-25.44-70.75c0-28.88,8.48-52.57,25.44-71.08
			c16.95-18.5,38.95-27.76,66-27.76c27.04,0,49.16,9.26,66.34,27.76c17.19,18.51,25.78,42.21,25.78,71.08
			C1982.59,478.27,1974.1,501.74,1957.15,520.24z"/>
	</g>
</g>
<g id="t">
	<g>
		<path class="st0" d="M2253.24,534.49c-8.02-8.12-12.03-21.43-12.03-39.94V355.76h93.88v-76.5h-93.88v-93.43h-0.69L2079.65,310.4
			v45.36h63.94v153c0,38.82,10.31,68.04,30.94,87.67c20.62,19.63,48.35,29.45,83.19,29.45c14.2,0,36.83-2.4,48.29-6.01
			c11.45-3.62,24.04-10.58,30-16v-71C2306.97,556.1,2264.51,545.91,2253.24,534.49z"/>
	</g>
</g>
<g id="i">
	<g>
		<path class="st0" d="M2373.3,212.87c10.76,10.15,24.63,15.23,41.59,15.23c16.5,0,30.13-5.08,40.91-15.23
			c10.76-10.16,16.16-22.9,16.16-38.25c0-15.34-5.39-28.1-16.16-38.25c-10.77-10.15-24.41-15.23-40.91-15.23
			c-16.96,0-30.83,5.08-41.59,15.23c-10.77,10.15-16.16,22.91-16.16,38.25C2357.15,189.97,2362.53,202.71,2373.3,212.87z
			 M2366.08,619.41h97.63V279.26h-97.63V619.41z"/>
	</g>
</g>
<g id="f">
	<g>
		<path class="st0" d="M2656.05,253.46c2.01-15.43,5.5-24.66,12.73-33.88c8.01-10.21,19-17.35,36.03-17.35
			c9.62,0,25.38,2.76,34.18,5.64c11.19,3.69,32.5,13.36,38,17l-35.09-84.8c-7.33-4.1-17.17-7.96-29.54-11.61
			c-12.36-3.64-25.41-5.46-39.15-5.46c-35.27,0-63.08,11.5-83.45,34.49c-20.38,23-30.57,52.71-30.57,89.14v32.79h-61.01v77.18h61.01
			v262.97h96.85V356.59h90.67v-77.18h-90.67V253.46z"/>
	</g>
</g>
<g id="y">
	<g>
		<polygon class="st0" points="2986.5,279.41 2896.52,495.25 2805.86,279.41 2698.02,279.41 2844.32,593.61 2781,728 2886,728 
			3084.73,279.41 		"/>
	</g>
</g>
<g id="R">
	<path class="st0" d="M3128.08,357.49c-6.1-3.43-10.86-8.19-14.3-14.27c-3.44-6.08-5.15-12.89-5.15-20.44
		c0-7.65,1.72-14.51,5.15-20.59c3.43-6.08,8.2-10.83,14.3-14.27c6.1-3.43,12.92-5.15,20.47-5.15c7.55,0,14.37,1.72,20.47,5.15
		c6.1,3.43,10.86,8.19,14.3,14.27c3.43,6.08,5.15,12.94,5.15,20.59c0,7.55-1.72,14.36-5.15,20.44c-3.44,6.08-8.2,10.83-14.3,14.27
		c-6.1,3.43-12.92,5.15-20.47,5.15C3141,362.63,3134.18,360.92,3128.08,357.49z M3165.24,351.16c4.94-2.84,8.78-6.74,11.54-11.69
		c2.76-4.95,4.14-10.56,4.14-16.84c0-6.27-1.38-11.89-4.14-16.84c-2.76-4.95-6.6-8.82-11.54-11.62c-4.94-2.79-10.5-4.19-16.69-4.19
		c-6.29,0-11.88,1.4-16.77,4.19c-4.89,2.79-8.71,6.67-11.47,11.62c-2.76,4.95-4.14,10.57-4.14,16.84c0,6.28,1.38,11.89,4.14,16.84
		c2.76,4.95,6.58,8.85,11.47,11.69c4.89,2.84,10.47,4.26,16.77,4.26C3154.74,355.43,3160.31,354.01,3165.24,351.16z M3133.45,303.22
		h17.56c4.94,0,8.69,0.98,11.25,2.94c2.56,1.96,3.85,4.71,3.85,8.24c0,2.55-0.82,4.73-2.47,6.54c-1.65,1.82-4.06,3.07-7.26,3.75
		l11.61,15.29h-10.89l-10.74-14.27h-3.92v14.27h-9V303.22z M3156.82,314.54c0-2.94-2.32-4.41-6.97-4.41h-7.4v8.53h7.26
		C3154.45,318.66,3156.82,317.29,3156.82,314.54z"/>
</g>
<path class="st0" d="M410.09,1.82C199.27-6.58,21.57,158.04,13.23,369.52c-8.38,211.48,155.76,389.7,366.56,398.1
	c210.83,8.41,388.48-156.21,396.86-367.7C784.99,188.44,620.88,10.2,410.09,1.82z M571.34,563.18c-4.75,8.41-14,12.61-23.01,11.35
	c-2.76-0.39-5.52-1.3-8.1-2.77c-50.49-28.83-105.52-47.6-163.55-55.8c-58.03-8.2-116.1-5.36-172.56,8.41
	c-12.26,2.98-24.58-4.55-27.55-16.85c-2.97-12.29,4.54-24.66,16.79-27.64c62.08-15.13,125.91-18.25,189.67-9.25
	c63.76,9,124.23,29.63,179.79,61.33c10.93,6.27,14.77,20.21,8.55,31.21H571.34z M621.55,462.59c-7.79,14.43-25.8,19.82-40.19,12.01
	c-59.08-32.05-123.05-53.1-190.12-62.56c-67.08-9.46-134.33-6.9-199.93,7.57c-3.56,0.77-7.09,0.91-10.51,0.42
	c-11.91-1.68-22.1-10.58-24.83-23.08c-3.53-16.04,6.6-31.91,22.59-35.45c72.52-16.01,146.86-18.84,220.95-8.41
	c74.06,10.44,144.76,33.7,210.06,69.14c14.42,7.81,19.76,25.85,11.98,40.31V462.59z M677.2,349.21
	c-7.33,14.15-22.59,21.47-37.46,19.37c-4.02-0.56-7.96-1.82-11.77-3.78c-68.79-35.9-142.88-59.61-220.22-70.51
	c-77.34-10.89-155.1-8.58-231.08,6.9c-19.76,4.03-39-8.79-43.02-28.58c-4.02-19.82,8.76-39.12,28.49-43.15
	c84.15-17.13,170.18-19.68,255.77-7.64c85.58,12.05,167.57,38.32,243.75,78.07c17.88,9.32,24.82,31.42,15.54,49.35V349.21z"/>
</svg>
